# xmcd CD database file
#
# Track frame offsets:
#	150
#	29724
#	43643
#	64066
#	83588
#	96347
#	120265
#	142535
#	160736
#	182508
#
# Disc length: 2875 seconds
#
# Revision: 0
# Processed by: cddbd v1.5.1PL0 Copyright (c) Steve Scherf et al.
# Submitted via: NeoAudio 9.9.9
#
DISCID=730b390a
DTITLE=The Ambiguous "They" - Don't Ever Drink With A Venezulan
DYEAR=2001
DGENRE=Jazz
TTITLE0=Get Outta Town
TTITLE1=Back In The Day
TTITLE2=Guttermind
TTITLE3=I'm Not The Kind
TTITLE4=Midnite Melancholia
TTITLE5=Have I Got News For You
TTITLE6=Temporary Tattoo
TTITLE7=Under The Moonlite
TTITLE8=Gardenieas For Rita
TTITLE9=Lullabye Of The Apocalypse
EXTD=YEAR: 2001
EXTT0=
EXTT1=
EXTT2=
EXTT3=
EXTT4=
EXTT5=
EXTT6=
EXTT7=
EXTT8=
EXTT9=
PLAYORDER=
